<svg width="21" height="21" viewBox="0 0 21 21" fill="none" xmlns="http://www.w3.org/2000/svg">
<g id="Other-Pay-Method">
<g id="Group 3019">
<path id="Vector" d="M20.3692 10.643C20.37 9.96161 20.312 9.28137 20.1957 8.6098H10.7V12.461H16.1387C16.0274 13.0761 15.7919 13.6624 15.4462 14.1847C15.1006 14.7069 14.6521 15.1543 14.1277 15.4997V17.9996H17.3736C19.2741 16.2594 20.3692 13.6859 20.3692 10.643Z" fill="#4285F4"/>
<path id="Vector_2" d="M10.6999 20.415C13.4172 20.415 15.7051 19.5289 17.3735 18.0012L14.1276 15.5013C13.2242 16.1096 12.0606 16.4569 10.6999 16.4569C8.07353 16.4569 5.84432 14.6986 5.04718 12.3293H1.70337V14.9055C2.54144 16.5617 3.82654 17.9539 5.41518 18.9268C7.00382 19.8997 8.83349 20.4149 10.6999 20.415Z" fill="#34A853"/>
<path id="Vector_3" d="M5.0471 12.329C4.62568 11.0874 4.62568 9.74291 5.0471 8.50137V5.92511H1.70329C0.998276 7.31831 0.631104 8.85593 0.631104 10.4152C0.631104 11.9744 0.998276 13.512 1.70329 14.9052L5.0471 12.329Z" fill="#FBBC04"/>
<path id="Vector_4" d="M10.6999 4.37377C12.1359 4.35047 13.5234 4.88927 14.5626 5.87369L17.4365 3.01967C15.6141 1.31986 13.1999 0.386637 10.6999 0.415634C8.83349 0.415719 7.00382 0.930962 5.41518 1.90384C3.82654 2.87672 2.54144 4.26894 1.70337 5.92508L5.04718 8.50134C5.84432 6.13201 8.07353 4.37377 10.6999 4.37377Z" fill="#EA4335"/>
</g>
</g>
</svg>
